# xmcd
#
# Track frame offsets:
#  150
#  19390
#  34812
#  54097
#  72241
#  87128
#  105318
#  124381
#  137473
#  163510
#  181221
#  208172
#  223556
#  239719
#  254188
#  275489
#  295752
#  309872
#
# Disc length: 4315 seconds
#
# Revision: 2
# Processed by: cddbd v1.5.1PL0 Copyright (c) Steve Scherf et al.
# Submitted via: Collectorz.com_Music_Collector 6.9
#
DISCID=0910d912
DTITLE=Bluebirds - Finest Rhythm and Blues Collection
DYEAR=2004
DGENRE=Blues -  Blues Electric
TTITLE0=Don't Ever Let Me Know
TTITLE1=Don't Know Why
TTITLE2=It Takes More
TTITLE3=Rumble and Stumble
TTITLE4=Wake Me Up
TTITLE5=Home On Wheels
TTITLE6=Cuttin' In
TTITLE7=Oh Baby!
TTITLE8=Nowhere To Run
TTITLE9=Spend Your Time
TTITLE10=How Long?
TTITLE11=Big Mamou
TTITLE12=Stranded
TTITLE13=Change My Ways
TTITLE14=Love Birds
TTITLE15=Feeling Blue
TTITLE16=Walkin' On Thrills
TTITLE17=Mox Boogie
EXTD=
EXTT0=
EXTT1=
EXTT2=
EXTT3=
EXTT4=
EXTT5=
EXTT6=
EXTT7=
EXTT8=
EXTT9=
EXTT10=
EXTT11=
EXTT12=
EXTT13=
EXTT14=
EXTT15=
EXTT16=
EXTT17=
PLAYORDER=
